<?xml version="1.0" encoding="UTF-8"?>
<svg xmlns="http://www.w3.org/2000/svg" viewBox="0.00 0.00 841.00 806.00" fill="none" role="img" aria-label="OpenPolySphere tree">
  <g id="tree-layer-green" class="logo-layer tree-layer tree-layer-green" data-layer="green">
    <path d="M27.31,367.05 L29.47,367.12 C30.74,369.44 30.83,369.75 32.56,371.7 L34.21,371.28 L35.13,366 L37.05,366.11 C37.14,368.6 37.04,374.17 36.92,380.81 C36.64,395.83 36.27,416.34 37.81,419.11 C49.94,427.6 50.13,426.59 57.17,438.99 L148.94,439.12 C152.38,435.7 155.61,432.56 158.79,428.89 L159.51,429.4 C164.23,432.65 167.64,433.11 171.33,437.63 L172,440.63 C167.33,445.75 162.54,450.75 157.63,455.63 C137.32,456.43 113.91,456.22 91.2,456.02 L91.2,456.02 C79.02,455.91 67.04,455.8 55.85,455.85 C49.05,472.04 35.03,480.65 17.77,473.42 C10.43,470.33 4.73,464.32 2.06,456.83 C-5.65,435.14 10.12,425.31 18.85,419.87 C20.87,418.62 22.51,417.59 23.4,416.71 C24.61,415.51 24.45,409.28 24.26,401.42 C23.99,389.92 23.62,374.93 27.31,367.05 Z" fill="#059A53"/>
    <path d="M127.07,630.36 L128.76,632.33 C129.27,632.19 129.83,632.03 130.41,631.86 C133.98,630.82 138.55,629.49 141.59,630.2 C144.36,632.57 144.29,632.82 146.02,635.92 L148,636.75 C144.05,639.21 132.94,646.4 129.04,648.1 C128.82,648.26 128.6,648.43 128.37,648.6 C121.82,653.46 112.52,660.38 105.35,652.26 C103.71,644.76 107.99,642.02 113.6,638.42 C113.79,638.29 113.99,638.17 114.19,638.04 C118.44,635.4 122.73,632.84 127.07,630.36 Z" fill="#059A53"/>
    <path d="M113.79,638 C117.63,639.33 123.4,645.25 128,648.09 C127.79,648.25 127.58,648.41 127.36,648.58 C121.1,653.46 112.19,660.39 105.34,652.25 C103.77,644.73 107.86,641.99 113.23,638.38 C113.41,638.25 113.6,638.13 113.79,638 Z" fill="#068D47"/>
    <path d="M168.21,418 C171.79,419.4 181.33,422.32 184.99,422.76 L186,424.59 C181.38,430.13 176.7,435.6 171.94,441 L171.29,437.89 C167.67,433.22 164.33,432.74 159.7,429.37 L159,428.85 Z" fill="#068D47"/>
    <path d="M201.79,408 L199,407.28 C201.3,402.23 208.11,403.08 213,403.7 C213.16,403.72 213.33,403.74 213.49,403.76 C210.82,403.13 207.87,402.28 205.16,402.2 C209.9,401.09 223.37,403.29 229.77,404.33 C230.13,404.39 230.47,404.45 230.79,404.5 C234.09,405.03 239.47,404.01 245.15,402.94 C255.18,401.04 266.11,398.97 268,405.03 C262.6,406.78 248.8,406.46 236.05,406.16 L236.04,406.16 C223.77,405.87 212.47,405.61 210.59,407.23 Z" fill="#068D47"/>
    <path d="M384.69,21.69 C387.19,13.63 391.3,7.77 398.96,3.69 C406.28,-0.23 414.87,-1.06 422.81,1.36 C433.57,4.7 442.64,14.12 442.91,25.64 C445.29,31.47 443.91,31.61 448.18,34.1 L448,34.19 C452.74,35.51 454.14,35.76 458.39,38.1 L459.17,38.31 L461,41.5 C459.19,47.43 456.88,47.84 450.91,48.18 C448.66,47.8 442.9,45.81 440.59,45.05 L437.19,50.74 C433.68,53.37 430.17,56.1 426.51,58.49 C423.9,59.85 423.3,59.94 421.31,62.13 C420.23,62.24 419.2,62.38 418.21,62.51 C412.84,63.23 408.73,63.78 404.23,59.36 C395.52,55.39 398.3,58.24 390.17,50.89 L386.18,45.26 C381.29,46.3 377.79,47.94 373.61,48.82 C370.19,47.35 368.97,44.32 367,41.05 L367.97,37.43 C377.1,34.81 379.78,34.21 380.96,32.55 C382.11,30.92 381.81,28.27 384.69,21.69 Z" fill="#068D47"/>
    <path d="M289.18,698.22 C291.14,698.51 291.16,698.51 293.2,698 C300.55,700.82 301.26,703.25 306,705.64 C300.44,708.96 300.68,712.35 300.97,716.32 C301.19,719.24 301.42,722.48 299.4,726.24 C299.27,738.52 297.58,747.23 296.62,759.21 C294.68,762.41 291.84,764.15 288.4,765 C281.68,762.79 281.81,755.06 282.11,748.62 C282.67,736.47 284.67,724.44 285.39,712.29 C285.39,711.93 285.39,711.57 285.4,711.22 C285.44,706.02 285.47,702.28 289.18,698.22 Z" fill="#068D47"/>
    <path d="M288.87,698.22 C290.86,698.5 290.88,698.5 292.96,698 C300.45,700.8 301.17,703.21 306,705.58 C300.33,708.87 300.58,712.23 300.88,716.17 C301.1,719.06 301.34,722.27 299.27,726 C299.2,724.99 299.18,724.19 299.17,723.52 C299.12,721.53 299.1,720.62 297.72,718.45 L298.29,720.37 C296.47,717.29 292.18,715.1 289.05,713.54 L285,712.17 C285,711.81 285.01,711.46 285.01,711.11 C285.06,705.95 285.09,702.24 288.87,698.22 Z" fill="#059A53"/>
    <path d="M310.87,684 L314.46,685.01 C313.6,691.7 317.63,692.04 323.43,692.53 C323.75,692.55 324.07,692.58 324.39,692.61 L326,694.32 C320.08,697.81 311.9,701.73 306.76,705 C301.76,702.65 301.01,700.26 293.24,697.48 C291.09,697.98 291.06,697.98 289,697.7 C292.14,691.69 304.11,687.22 310.87,684 Z" fill="#068D47"/>
  </g>
  <g id="tree-layer-teal" class="logo-layer tree-layer tree-layer-teal" data-layer="teal">
    <path d="M25,308.63 C26.87,307.68 33.52,306.81 36.12,306.24 C38.79,300.12 52.49,250.2 52.38,241.85 C51.03,239 49.09,236.34 47.15,233.67 C43.2,228.22 39.21,222.73 40.01,215.46 C41.94,197.98 58.04,182.56 76.59,189.63 C85.94,193.19 88.85,190.27 94.42,184.67 C94.96,184.14 95.52,183.58 96.1,183 C96.65,184.03 97.64,185.68 97.9,186.7 C100.69,188.6 101.56,189.16 104.3,190.39 C102.41,192.35 100.17,194.76 98.13,196.09 C97.68,196.71 97.29,197.17 96.98,197.53 C96.13,198.53 95.82,198.89 96.1,200.21 C96.02,200.67 96.11,201.25 96.38,202.21 C96.92,204.12 97.4,205.69 97.83,207.07 C99.02,210.89 99.77,213.32 99.92,217.69 C99.93,218.46 99.92,219.28 99.89,220.17 L99.94,220.19 C99.94,220.57 99.93,220.95 99.92,221.35 C114.41,228.84 130.51,234.37 145.05,241.43 C141.3,241.96 129.36,244.83 127.63,246.42 C124.02,246.09 99.85,235.09 95.07,233 C94.46,233.66 93.91,234.25 93.41,234.78 C89.61,238.82 88.92,239.55 89.01,245.45 C91.23,247.91 92.17,251.38 93.32,254.54 L93.33,254.56 C93.13,254.84 92.94,255.11 92.77,255.35 C90.73,258.27 90.33,258.83 85.35,258.4 L84.28,259.68 C83.1,258.98 80.64,251.86 80.06,250.33 L79.05,249.82 L79,249.84 C77.44,243.71 69.37,244.28 65.41,246.76 L65,249.08 L64.44,249.1 C61.81,257.75 49.7,306.87 47,310.45 C51.46,314.42 54.59,316.79 57.65,322.01 C60.58,319.68 69.48,317.05 73.33,315.74 C78.17,320.17 81.49,318.63 86.03,325 L86.02,325 C81.48,318.7 78.15,320.23 73.31,315.85 C69.46,317.14 60.55,319.75 57.62,322.05 C54.55,316.89 51.42,314.54 46.95,310.63 L44.14,311.87 C37.12,309.04 32.43,308.96 25,308.63 Z M108.81,290.38 C111.55,294.17 112.63,296.72 116.81,298 C119.41,297.48 121.3,297.15 123.86,296.38 C129.3,292.63 164.42,283.49 172.01,278.39 C175.02,276.36 175.03,272.01 175.71,268.14 L176.73,267.56 L177.12,263.87 L177.18,263.89 L176.76,267.95 L176.69,267.99 C176.68,268.07 176.67,268.15 176.65,268.22 L175.71,268.77 C175.09,272.39 175.04,276.42 172.65,278.62 C164.38,283.85 130.06,292.93 124.68,296.68 C124.59,296.8 124.5,296.92 124.41,297.04 C124.27,297.12 124.14,297.2 124.03,297.28 C123.05,298.55 122.22,299.51 121.47,300.24 C120.62,300.97 119.88,301.4 119.14,301.68 C120.47,300.99 121.92,299.69 124,296.94 C121.46,297.73 119.57,298.06 116.98,298.6 C112.75,297.27 111.71,294.6 108.88,290.63 Q108.85,290.5 108.81,290.38 Z M176.98,254.76 C177.34,254.93 177.68,255.1 178,255.26 C176.65,255.27 175.67,255.22 174.88,255.18 C172.51,255.07 171.96,255.05 168.86,256.71 L168.71,258.2 C168.69,258.18 168.66,258.15 168.64,258.12 L168.83,256.2 C171.94,254.55 172.49,254.57 174.87,254.68 C175.44,254.71 176.13,254.74 176.98,254.76 Z M68.76,252.6 C68.64,252.59 68.53,252.56 68.41,252.54 L66.84,249.02 L67.29,248.99 Z M96.95,320.97 L96.99,321 C94.47,322.21 89.82,324.38 86.74,324.91 C89.8,324.38 94.42,322.2 96.95,320.97 Z M84.2,315.63 C84.03,315.72 83.86,315.8 83.69,315.89 L83.62,315.82 C83.78,315.73 83.95,315.65 84.12,315.56 Z" fill="#09AE9B"/>
    <path d="M146.18,241 C151.5,243.03 156.84,244.94 161.97,247.36 C162.43,252.25 157.93,256.16 152.92,257 C145.37,253.36 134.5,249.79 128,246 C129.84,244.34 143.17,241.28 146.18,241 Z" fill="#05989B"/>
    <path d="M161.66,248 C166.05,249.72 173.82,252.94 178,255.19 C176.69,255.2 175.73,255.15 174.96,255.11 C172.66,255 172.12,254.97 169.11,256.68 L168.92,258.66 Q168.96,258.7 169,258.75 L169,258.76 C169.07,258.84 169.14,258.92 169.21,258.99 C171.48,261.58 173.85,262.93 177.2,263.97 L176.82,267.92 L176.69,267.99 C176.67,268.16 176.64,268.33 176.61,268.49 L175.78,269 C171.62,264.62 158.66,260.19 153,258.06 C157.79,257.19 162.1,253.11 161.66,248 Z" fill="#09AEB1"/>
    <path d="M94,254 C98.58,263.74 105.9,280.11 109.08,290.54 C111.87,294.52 112.9,297.2 117.08,298.53 C119.63,297.99 121.49,297.66 124,296.87 C121.8,299.83 120.31,301.12 118.91,301.76 C118.16,302.02 117.41,302.14 116.57,302.27 C114.82,302.55 112.67,302.89 109.26,304.68 C101.47,308.78 91.59,311.57 84,315.45 C84.1,315.54 84.2,315.63 84.3,315.72 C84.25,315.75 84.2,315.77 84.15,315.8 C88.14,319.52 89.19,320.27 94.58,319 L97.35,320.94 C94.66,322.26 89.52,324.74 86.53,325 C82.06,318.61 78.77,320.16 74,315.71 C80.86,312.75 88.24,311.19 94.78,307.86 C99.92,305.24 99.04,301.99 97.9,297.79 C97.71,297.06 97.5,296.3 97.32,295.52 C93.06,284.11 88.33,271.17 84.8,259.51 L85.86,258.22 C90.78,258.66 91.17,258.1 93.18,255.17 C93.43,254.82 93.69,254.43 94,254 Z" fill="#09A7A6"/>
    <path d="M98,186 C101.04,187.93 102.05,188.54 104.92,189.75 C102.92,191.8 100.39,194.61 98.13,196.09 C98.05,196.2 97.97,196.31 97.89,196.42 C96.14,194.18 95.26,194.57 93,190.38 C94.37,187.33 94.27,188.15 98,186 Z" fill="#09A7A6"/>
    <path d="M131.77,147.28 C134.96,143.97 138.96,140.26 142.3,137 C145.94,139.39 147.27,139.26 151.79,139.94 L154,141.9 L145.91,150.4 C143.79,152.47 134.59,161.73 132.8,163 C130.19,161.95 120.41,161.8 117,161.67 Z" fill="#09AE9B"/>
    <path d="M131,146.98 C134.3,143.76 138.44,140.16 141.9,137 C145.66,139.32 147.03,139.19 151.72,139.85 L154,141.75 L145.63,150 C139.54,149.6 136.4,149.89 131,146.98 Z" fill="#09AEB1"/>
    <path d="M116.6,161 C119.93,161.15 129.46,161.31 132,162.47 C126.97,168.27 121.75,174.49 116.5,180 C113.33,174.94 110.4,177.54 107,171.96 C109.95,168.33 113.48,164.53 116.6,161 Z" fill="#09A7A6"/>
    <path d="M106.66,171 C110.36,176.46 113.55,173.91 117,178.86 C114.75,181.07 107.57,188.38 105.47,190 C101.93,188.46 101.11,187.94 97.9,185.79 C97.63,184.71 96.58,182.98 96,181.89 C99.69,177.49 102.51,174.88 106.66,171 Z" fill="#09AE9B"/>
    <path d="M181.42,157.68 L181.63,150.32 C184.22,146.42 186.61,146.7 191.92,145 C192.97,155.78 204.57,243.19 208.15,245.79 C209.32,246.63 210.71,247.11 212.13,247.47 C208.59,247.74 206.45,247.73 201.67,247 C186.8,253.53 194.25,261.85 178.17,263.04 L178.08,263.96 C177.91,263.97 177.74,263.99 177.57,264 C173.95,262.93 171.44,261.53 169,258.77 L169.2,256.82 C172.31,255.14 172.87,255.16 175.26,255.28 L175.26,255.28 C176.05,255.31 177.04,255.36 178.4,255.36 C181.95,255.44 193.5,248.21 193.43,245.87 C192.63,217.51 183.04,186.72 181.47,158.72 Z" fill="#09A7A6"/>
    <path d="M268.92,214.38 C269.02,214.57 269.12,214.76 269.22,214.94 C272.02,220.15 272.7,221.4 269.87,227.53 L271.51,228.21 L271.71,228.13 C269.65,231.18 247.44,248.32 242.1,251.63 C236.53,247.59 235.53,251.38 229.01,247.43 C228.83,247.55 228.64,247.68 228.45,247.82 C228.3,247.74 228.15,247.65 228,247.56 C236,239.41 262.89,222.38 268.92,214.38 Z" fill="#08A2B7"/>
    <path d="M369.42,37 L368.46,40.54 C370.41,43.75 371.62,46.72 375,48.16 C370.05,50.58 356.69,54.84 351.01,56.81 C334.38,62.58 317.72,68.27 301.03,73.87 C284.16,79.66 244.8,94.62 229.86,98.19 C228.12,98.86 226.31,99.43 224.51,99.98 C217.45,102.16 210.72,104.24 210.76,112.46 C210.76,114.2 210.24,115.18 209.8,115.99 C209.12,117.26 208.65,118.14 210.75,120.9 C206.68,123.31 202.09,125.83 199.31,129.7 C193.98,132.7 191.96,133.71 191.32,135.28 C190.93,136.23 191.05,137.39 191.25,139.31 C191.38,140.59 191.55,142.21 191.62,144.34 C186.29,146.04 183.89,145.76 181.3,149.65 L181.09,157 C178.18,152.71 178.07,146.39 179.76,141.65 C177.41,135.93 169.13,133.08 163.92,129.57 C160.12,133.63 156.88,136.98 152.82,140.82 L150.59,138.8 C146.01,138.1 144.68,138.24 141,135.76 C141.88,134.89 143.01,133.88 144.24,132.78 C148.91,128.61 155,123.16 154.16,118.8 C149.8,112.39 151.17,102.48 152.42,95.18 C154.66,93.25 157.92,83.88 164.26,80.41 C171.74,76.31 175.84,74.71 184.48,76.05 C192.82,77.31 200.34,81.7 205.43,88.3 C207.01,90.37 206.87,90.53 209.01,92.23 L210.61,91.72 C218.54,90.12 259.3,75.48 269.42,71.8 C301.79,60.05 337.83,49.41 369.42,37 Z" fill="#09AE9B"/>
    <path d="M153.31,96 L156.18,96.63 C158.6,101.44 158.94,115.23 155.15,119 C150.54,112.76 151.99,103.11 153.31,96 Z" fill="#09A7A6"/>
    <path d="M227.7,135 C243.57,148.51 260.5,162.53 275.99,176.35 C275.83,176.25 275.68,176.16 275.53,176.07 C272.42,176.51 262.84,180.04 260,181.64 C260.09,181.72 260.19,181.81 260.28,181.89 C252.7,177.75 221.64,148.97 213,141.53 C219.42,136.6 224.53,141.03 227.7,135 Z" fill="#0895C1"/>
    <path d="M210.97,121 C215.97,125.36 222.51,130.74 227,135.42 C223.95,141.5 219.01,137.02 212.82,142 L200,129.99 C202.67,126.04 207.06,123.46 210.97,121 Z" fill="#078CA9"/>
    <path d="M214.8,247.19 C217.73,248.77 219.47,249.47 221.81,251.89 C223.6,250.79 226.36,248.71 228.16,247.43 C234.76,251.47 235.68,247.45 241.49,251.87 C230.41,260.77 230.63,261.44 232.22,266.24 C232.9,268.29 233.83,271.09 234.24,275.6 C235.99,278.95 251.06,283.23 256,285.71 C252.51,288.93 249.51,291.06 248.95,295.9 L247.44,296.85 C241.36,295.02 235.2,292.17 229.49,290.62 C209.08,311.81 197.96,304.72 185.19,296.57 C183.03,295.19 180.82,293.78 178.5,292.47 C177.06,291.66 134.47,307.09 129.97,310.07 C130.88,313.22 134.28,315.81 136.78,318.19 L135.01,319.75 C135.76,320.84 136.32,321.8 136.83,323.03 C130.12,327.27 126.91,326.5 119.73,323.64 L118.07,324.36 C116.44,323.55 110.89,318.8 109.14,317.38 C105.6,318.63 101.03,320.52 97.39,320.8 L94.58,318.87 C89.11,320.14 88.05,319.39 84,315.69 C91.55,311.79 101.37,308.99 109.12,304.88 C112.51,303.08 114.64,302.74 116.38,302.46 C119,302.05 120.71,301.77 124.44,296.85 C129.87,293.03 164.9,283.71 172.47,278.51 C175.47,276.44 175.48,272.01 176.15,268.06 L177.18,267.47 L177.62,263.09 C193.6,261.9 186.2,253.55 200.98,247 C206.74,247.88 208.65,247.72 213.84,247.27 C214.15,247.24 214.47,247.21 214.8,247.19 Z" fill="#05989B"/>
    <path d="M222,252.43 C223.82,251.34 226.62,249.27 228.46,248 C235.16,252.02 236.09,248.03 242,252.42 C230.74,261.26 230.96,261.93 232.58,266.7 C233.27,268.73 234.21,271.52 234.63,276 C228.51,270.41 226.75,262.69 225.33,255.12 C224.98,253.24 223.94,253.42 222,252.43 Z" fill="#079AA9"/>
    <path d="M349.53,353 C370.12,372.97 370.11,375.58 369.98,399.64 C369.97,401.64 369.96,403.78 369.96,406.1 C369.09,410.56 369.76,411.24 367.12,414.23 C363.34,414.72 361.3,414.9 357.5,415 C354.12,405.51 354.1,393.75 354.07,382.93 C354.07,380.7 354.07,378.51 354.03,376.39 C349.61,372.28 345.26,368.1 341,363.84 C343.13,362.54 342.28,363.36 343.28,361.11 C348.21,358.15 348.87,358.48 349.53,353 Z" fill="#08A2B7"/>
    <path d="M265,303.64 C273.83,298.03 278.02,297.8 287.96,298.08 C298.95,301.73 307.29,310.93 315,319.52 C312.64,323.1 311.24,323.19 309.86,323.27 C308.36,323.36 306.89,323.45 304.26,328 C285.45,310.5 285.55,314.74 265.68,304.01 Z" fill="#079AA9"/>
    <path d="M330.56,335 C336.63,340.74 343.23,346.76 349,352.74 C348.35,358.43 347.71,358.09 342.88,361.16 C341.91,363.5 342.74,362.65 340.65,364 C334.19,358.5 328.97,353.24 323,347.27 C327.3,343.02 324.61,340.97 330.56,335 Z" fill="#079AA9"/>
    <path d="M315.3,320 C320.82,325.35 326.39,330.66 332,335.94 C325.91,341.81 328.66,343.83 324.26,348 C317.34,341.68 310.59,335.19 304,328.55 C306.77,323.97 308.31,323.88 309.89,323.79 C311.34,323.7 312.81,323.62 315.3,320 Z" fill="#09AEB1"/>
    <path d="M190.91,393.22 C196.16,388.42 209,388.86 218.38,389.18 C220.39,389.25 222.25,389.31 223.84,389.32 L277.1,389.54 C284.89,394.9 331.05,444.18 337.48,453.13 C338.17,471.84 338.02,490.72 337.88,509.59 L337.88,509.62 L337.88,509.63 L337.88,509.63 L337.88,509.63 L337.88,509.64 L337.88,509.64 L337.88,509.65 L337.88,509.65 L337.88,509.66 L337.88,509.66 L337.88,509.67 L337.88,509.67 L337.87,509.67 L337.87,509.68 L337.87,509.68 L337.87,509.69 L337.87,509.69 L337.87,509.7 L337.87,509.7 L337.87,509.7 L337.87,509.71 L337.87,509.71 L337.87,509.72 L337.87,509.72 L337.87,509.73 L337.87,509.73 L337.87,509.74 L337.87,509.74 L337.87,509.74 L337.87,509.75 L337.87,509.75 L337.87,509.76 L337.87,509.76 L337.87,509.76 L337.87,509.77 L337.87,509.77 L337.87,509.78 L337.87,509.78 L337.87,509.79 L337.87,509.79 L337.87,509.8 L337.87,509.8 L337.87,509.81 L337.87,509.81 L337.87,509.81 L337.87,509.82 L337.87,509.82 L337.87,509.83 L337.87,509.83 L337.87,509.83 L337.87,509.84 L337.87,509.84 L337.87,509.85 C337.76,524.03 337.65,538.19 337.9,552.26 C338.22,570.14 337.43,583.49 322.99,596.22 C304.44,614.99 285.58,614.36 263.23,613.61 C257.3,613.41 251.12,613.2 244.63,613.35 C238.85,621.4 233.12,629.6 226.94,637.35 L225.34,636.43 C224.86,634.57 225.31,634.02 225.97,633.21 C226.59,632.46 227.39,631.49 227.79,629.04 C223.88,628.48 215.62,628.62 213.17,627.88 C216.71,621.68 218.69,619.11 223.13,613.48 C221.4,613.39 219.67,613.29 217.94,613.18 L217.94,613.18 C208.41,612.63 198.81,612.06 189.32,612.46 C176.03,619.82 161.32,629.29 148.11,637.23 C144.15,639.62 133.01,646.64 129.1,648.3 C128.88,648.45 128.66,648.61 128.43,648.78 C121.87,653.52 112.54,660.27 105.36,652.35 C103.71,645.04 108,642.36 113.62,638.85 C113.82,638.73 114.01,638.6 114.21,638.48 C118.47,635.91 122.78,633.41 127.13,630.99 C137.61,623.18 173.73,601.33 185.44,594.91 L251.53,595 C255.19,595.01 258.78,595.14 262.3,595.26 C277.55,595.79 291.58,596.28 305.01,587.22 C318.9,573.13 318.88,570.07 318.81,552.05 C318.81,551.29 318.8,550.51 318.8,549.69 C318.71,519.72 318.7,489.68 318.65,459.71 C302.69,442.42 286.6,425.24 270.38,408.18 C266.3,408.21 261.77,408.28 257.01,408.35 L257.01,408.35 C241.64,408.59 223.9,408.86 211.22,407.95 L202.38,408.79 C200.82,410.77 189.29,423.92 187.65,425.08 C182.94,430.38 178.15,435.62 173.3,440.79 L172.63,437.81 C168.94,433.34 165.52,432.88 160.8,429.65 L160.08,429.15 L169.49,418.76 C173.67,414.55 178.34,409.1 182.37,404.62 L183.68,403.77 C185.27,400.64 185.17,399.67 184.85,396.58 C184.82,396.31 184.79,396.03 184.76,395.73 L185.77,394.67 C187.84,394.89 188.62,394.47 190.15,393.63 C190.38,393.5 190.63,393.37 190.91,393.22 Z" fill="#039F6C"/>
    <path d="M369.15,406 C372.33,412.73 369.34,430.45 373.95,443.22 C375.19,447.48 375.04,454.72 374.93,460.44 C374.9,461.56 374.88,462.63 374.87,463.6 C374.72,478.46 374.79,493.36 374.86,508.27 C374.97,531.43 375.08,554.61 374.36,577.67 C374.06,587.35 362.28,607.03 357.15,614.14 C353.48,618.48 350.5,622.13 346.3,626 C340.64,622.7 334.64,620.18 332,614.3 L335.47,611.57 C345.08,601.19 354.65,588.48 356.27,573.97 L356.17,447.05 C352.26,442.68 348.28,438.37 344.23,434.13 C347.83,428.52 349.34,424.22 353.84,417.97 L355.39,417.65 L357.15,414.97 C360.81,414.87 362.78,414.68 366.41,414.19 C368.95,411.18 368.31,410.5 369.15,406 Z" fill="#09AEB1"/>
    <path d="M356.27,573.91 C357.31,570.84 357.67,568.86 357.94,567.43 C358.52,564.25 358.63,563.68 364.5,559.54 C367.65,559.33 368.37,559.54 371.15,558.04 C372.04,554.19 371.93,550.77 371.81,546.98 C371.79,546.41 371.78,545.83 371.76,545.24 C371.37,529.68 371.48,514.13 371.58,498.57 C371.67,486.25 371.75,473.93 371.59,461.61 L371.58,460.91 L371.58,460.91 C371.51,455.39 371.43,449.78 372.12,444.33 L373.95,443 C375.19,447.27 375.04,454.51 374.93,460.24 C374.9,461.36 374.88,462.43 374.87,463.4 C374.72,478.28 374.79,493.2 374.86,508.12 C374.97,531.32 375.08,554.52 374.36,577.61 C374.06,587.3 362.28,607 357.15,614.13 C353.48,618.47 350.5,622.13 346.3,626 C340.64,622.7 334.64,620.17 332,614.28 L335.47,611.55 C345.08,601.16 354.65,588.43 356.27,573.91 Z" fill="#09A7A6"/>
    <path d="M335.45,612.11 C343.49,609.69 349.92,608.1 357,614.59 C353.35,618.76 350.39,622.28 346.21,626 C340.59,622.82 334.62,620.39 332,614.74 Z" fill="#05989B"/>
    <path d="M24.83,309 C32.27,309.32 36.98,309.41 44.01,312.22 L46.84,310.98 C51.31,314.86 54.45,317.19 57.53,322.31 C60.46,320.03 69.4,317.44 73.25,316.16 C78.11,320.51 81.45,318.99 86,325.24 C82.83,326.85 75.78,329.45 72.23,330.1 C62.46,333.43 62.11,335.47 61.42,339.59 C61.04,341.85 60.56,344.74 58.35,348.81 C57.46,349.95 57.12,350.22 57.01,350.56 C56.94,350.76 56.94,350.99 56.95,351.42 C56.96,351.77 56.97,352.25 56.94,352.98 C59,354.79 60.56,355.92 61.99,358.26 L61.2,359.91 L59.85,359.14 C58.1,358.17 56.95,357.63 55.14,356.82 L54.85,357.21 C52.16,357.92 51.19,357.61 50.12,359.31 C44.66,363.47 40.55,363.52 36.88,366.52 L34.95,366.42 L34.03,371.59 L32.39,372 C30.65,370.09 30.55,369.79 29.29,367.52 L27.12,367.45 C24,363.56 22.82,364.17 18.87,361.58 C4.2,351.95 -3.5,339.07 6.55,322.58 C11.12,315.08 15.67,310.47 24.83,309 Z" fill="#039F6C"/>
    <path d="M73.47,316 C78.24,320.36 81.52,318.85 86,325.12 C82.88,326.74 75.95,329.35 72.46,330 C70.21,327.61 69.04,327.85 67.78,328.1 C66.59,328.34 65.33,328.6 63.03,326.75 C62.65,324.38 62.94,325.12 61.87,322.99 L58,322.18 C60.89,319.88 69.67,317.29 73.47,316 Z" fill="#09AE9B"/>
    <path d="M165.44,367.91 C166.77,367.22 166.04,367.7 167.51,366.29 C164.51,360.76 159.96,360.57 156,354.85 L156.53,352.96 C160.55,351.24 163.96,352.18 167.11,353.05 C169.94,353.84 172.57,354.56 175.28,353.27 C181,354.93 188.09,354.74 194.58,354.56 C196.49,354.51 198.35,354.46 200.1,354.46 C203.14,354.45 208.01,354.34 213.98,354.2 C239.51,353.61 285.26,352.55 294.51,357.57 C301.99,361.62 308.42,370.53 314,376.82 C311.96,381.8 304.3,384.19 300.14,388 C295.13,382.66 290.34,377.89 285.08,372.77 L211.58,372.91 C209.63,372.92 207.25,372.98 204.61,373.06 C191.57,373.43 172.01,373.99 165.44,367.91 Z" fill="#09AE9B"/>
    <path d="M201.45,641 C211.88,648.63 211.89,648.98 212.16,656.01 C212.24,658.06 212.34,660.69 212.73,664.25 L212.73,665.7 C212.72,669.26 212.08,672.7 211.46,675.99 C210.08,683.34 208.84,689.92 215.18,695.39 C218.63,698.3 223.09,701.75 224,705.91 C223.48,708.15 222.96,720.82 222.5,724.93 C214.12,736.32 203.81,743.69 189.11,738.08 C182.32,735.46 176.97,730.12 174.37,723.39 C166.84,704.16 178.94,696.19 187.28,690.69 C190.55,688.53 193.24,686.76 193.94,684.84 C199.01,670.9 195.29,654.96 201.45,641 Z" fill="#039F6C"/>
    <path d="M331.83,615 C334.45,620.95 340.39,623.5 346,626.84 C328.39,641.07 309.46,648.25 286.68,649.64 C285.46,651.26 275.63,664.68 275.35,664.92 C273.17,668.04 269.8,673.22 267.48,676 C263.54,674.63 260.78,669.35 258.17,665.55 L257,663.11 C261.11,658.11 272,640.96 276.34,638.3 C298.27,624.84 307.97,633.84 331.83,615 Z" fill="#09AEB1"/>
    <path d="M258,664.58 C266.33,668.95 267.3,668.32 274.14,661 C274.64,662.28 274.81,662.51 274.88,662.77 C274.94,662.97 274.94,663.19 275,663.9 C272.84,667.3 269.5,672.97 267.21,676 C263.31,674.5 260.58,668.73 258,664.58 Z" fill="#09A7A6"/>
    <path d="M50,359.51 C51.08,357.8 52.06,358.12 54.78,357.41 L55.07,357.02 C56.9,357.83 58.06,358.37 59.83,359.34 L61.19,360.11 L61.99,358.46 C60.55,356.12 58.97,354.99 56.89,353.17 C56.92,352.45 56.91,351.96 56.9,351.61 C56.89,351.18 56.89,350.96 56.96,350.76 C57.07,350.41 57.41,350.14 58.32,349 C63.13,356.95 99.48,383.73 109.11,392.75 C123,391.29 176.88,391.08 191,392.74 C190.72,392.89 190.47,393.02 190.24,393.15 C188.69,393.97 187.9,394.39 185.8,394.17 L184.78,395.22 C184.82,395.52 184.85,395.8 184.87,396.07 C185.2,399.11 185.3,400.07 183.69,403.16 L182.37,404 C178.99,400.69 133.98,401.33 113.1,401.62 C108.9,401.68 105.67,401.73 103.96,401.73 C98.08,396.78 54.8,360.48 50,359.51 Z" fill="#09AE9B"/>
    <path d="M314.03,376 L354,418.43 C349.47,424.85 347.95,429.25 344.33,435 C331.19,422.48 312.9,401.5 300,387.64 C304.21,383.67 311.96,381.18 314.03,376 Z" fill="#09A7A6"/>
    <path d="M118,324.22 L119.68,323.49 C126.93,326.37 130.17,327.15 136.94,322.88 C136.43,321.63 135.86,320.67 135.1,319.57 L136.9,318 C147.9,327.53 165.29,342.35 175,352.94 C172.26,354.26 169.6,353.51 166.74,352.71 C163.55,351.81 160.11,350.84 156.04,352.62 L155.5,354.55 C159.51,360.45 164.11,360.64 167.15,366.33 C165.65,367.78 166.4,367.29 165.05,368 C153.88,359.52 129.09,334.73 118,324.22 Z" fill="#039F6C"/>
    <path d="M216,695.02 C219.89,693.7 238.39,683.59 243.32,681 C248.07,687.02 252.11,687.76 254,690.33 C248.76,694.4 231.44,703.81 224.79,705 C223.88,701.05 219.44,697.78 216,695.02 Z" fill="#09AE9B"/>
    <path d="M202,640.4 C205.65,636.04 208.6,631.19 212.37,627 C214.82,627.76 223.08,627.61 227,628.18 C226.6,630.66 225.8,631.65 225.18,632.41 C224.52,633.22 224.07,633.78 224.54,635.66 L226.15,636.6 C223.34,641.7 219.56,645.73 215.78,650.15 C215.46,654.91 215.68,660.1 213.33,664 C212.94,660.39 212.84,657.72 212.76,655.63 C212.49,648.5 212.48,648.15 202,640.4 Z" fill="#039F6C"/>
    <path d="M256.73,662 L257.88,664.42 C260.43,668.19 263.13,673.43 267,674.79 C264.3,678.42 257.7,687.81 254.47,690 C252.62,687.29 248.65,686.5 244,680.13 C248.4,674.2 252.64,668.15 256.73,662 Z" fill="#09AE9B"/>
    <path d="M508.32,56 C516.07,58.51 523.78,61.16 531.42,63.96 C537,65.6 584.4,81.22 585.34,82.38 C588.7,86.85 589.5,89.81 584.02,94 C566.6,88.77 534.61,78.3 518.24,71.53 C513.44,70.42 503.59,67.09 499,65.24 L502.73,64.08 C503.2,59.97 506.51,60.81 508.32,56 Z" fill="#0895C1"/>
    <path d="M508.48,56 C516.38,58.42 524.22,60.98 532,63.69 C530.7,63.65 529.64,63.6 528.76,63.55 C526.55,63.45 525.44,63.39 524.47,63.72 C523.33,64.11 522.37,65.04 519.99,67.03 L522.47,65.96 L523.61,67.21 L523.13,68.47 C519.43,69.63 520.74,68.62 518.59,71 C513.7,69.92 503.67,66.71 499,64.92 L502.8,63.81 C503.27,59.84 506.64,60.65 508.48,56 Z" fill="#08A2B7"/>
    <path d="M447.21,68 C453.93,77.82 467.18,96.39 472.59,106.14 L475.39,110.47 L478,113.7 C474.18,118.56 473.71,119.26 467.93,119.92 L464.95,115.58 C463.5,112.67 460.76,108.79 458.9,105.99 C451.18,95.65 445.33,84.62 437.98,74.93 L437.63,74.36 C441.71,71.52 444.44,72.15 447.21,68 Z" fill="#079AA9"/>
    <path d="M475.57,111 L478,114.05 C474.31,118.82 473.99,119.34 467.99,120 L465,115.59 C465.67,113.56 465.7,113.72 467.45,112.45 C470.84,112.23 472.33,112 475.57,111 Z" fill="#08A2B7"/>
    <path d="M473.11,106.35 L476,110.43 C472.4,111.42 470.75,111.65 466.98,111.87 C465.19,113.05 465.02,113 464.42,114.57 C462.97,111.95 460.78,108.8 459.15,106.36 C464.68,108.09 467.37,108.36 473.11,106.35 Z" fill="#079AA9"/>
    <path d="M457.89,38 L461.89,39.04 L465.16,39.93 C473.76,43.13 482.37,46.29 491,49.4 C488.88,49.68 475.7,54.9 474.08,56 C470.71,55.84 453.94,49.59 450,48.01 C455.82,47.67 458.06,47.27 459.83,41.41 Z" fill="#08A2B7"/>
    <path d="M492.1,49 L498.97,51.38 L509,55.23 C507.18,60.32 503.84,59.43 503.38,63.78 L499.62,65 C496.98,64.59 496.04,64.06 493.58,63.07 C488.85,61.77 479.27,58.17 475,55.77 C476.64,54.64 489.95,49.28 492.1,49 Z" fill="#078CA9"/>
    <path d="M498.6,51 L509,54.96 C507.11,60.19 503.65,59.28 503.17,63.74 L499.27,65 C496.53,64.58 495.56,64.04 493,63.01 C499.07,61.13 499.94,56.7 498.6,51 Z" fill="#079AA9"/>
    <path d="M426,57.75 C429.58,55.36 433.01,52.62 436.44,50 C438.76,55.32 441.85,59.89 444.93,64.79 L447,68.03 C444.29,72.21 441.61,71.65 437.66,74.4 L434.1,68.46 C431.74,65.03 429.42,61.47 427.1,58 C426.85,58.13 426.61,58.25 426.4,58.36 C426.26,58.16 426.13,57.95 426,57.75 Z" fill="#05989B"/>
    <path d="M340.57,234 L351.45,245.2 C370.52,264.39 391.17,285.69 411,303.85 L409.5,309.31 C408.54,307.62 408.79,307.97 408.32,306.03 L406.1,305.38 C404.51,299.12 390.39,289.38 385.07,285.03 C382.54,282.96 375.21,284.38 372.36,285.31 L373.48,286.2 C378.69,290.42 401.21,313.86 403.33,319.52 L401.62,321 C385.33,302.06 352.83,269.27 334.75,251.42 C331.81,248.42 328.88,245.18 326,242.1 C332.78,239.91 334.73,237.85 340.57,234 Z" fill="#0895C1"/>
    <path d="M340.31,234 L351,244.93 C345.72,248.82 340.99,249.05 334.59,251 C331.71,248.07 328.83,244.91 326,241.9 C332.66,239.77 334.58,237.76 340.31,234 Z" fill="#078CA9"/>
    <path d="M478.68,114 C484.27,123.5 496.28,139.61 500.23,148.04 C502.97,151.39 503.8,152.78 506,156.55 C502.33,159.65 501.54,159.77 499.53,160.06 C498.55,160.21 497.27,160.39 495.21,161 C493.62,159.13 491.6,155.75 490.2,153.57 C482.36,142.62 475.31,131.62 468,120.32 C474.39,119.62 474.74,119.06 478.68,114 Z" fill="#079AA9"/>
    <path d="M500.16,148 C502.93,151.37 503.77,152.76 506,156.54 C502.29,159.65 501.48,159.77 499.45,160.06 C498.45,160.21 497.16,160.39 495.08,161 C493.47,159.13 491.42,155.73 490,153.54 L493.4,150.24 C496.32,149.65 497.47,149.43 500.16,148 Z" fill="#08A2B7"/>
    <path d="M506.14,156 C510.89,162.99 514.39,167.78 518,175.46 C513.17,178.27 512.12,178.5 509.18,183 C505.27,176 499.54,168.63 495,160.53 C497.12,159.92 498.45,159.72 499.46,159.58 C501.53,159.28 502.35,159.16 506.14,156 Z" fill="#079AA9"/>
    <path d="M309.29,174 C309.81,174.57 317.73,184.1 316.67,183.4 C324.4,191.81 325.3,197.68 324.76,208.93 C324.61,211.87 324.42,214.8 324.19,217.74 C329.65,223.76 334.08,228.18 340,233.78 C334.04,237.69 332.05,239.78 325.13,242 C323.17,240.46 321.61,238.6 320.13,236.84 C316.74,232.82 313.8,229.33 307.67,231.37 C293.23,235.66 288.42,234.14 275.84,226.48 L271.54,228.39 L269.9,227.7 C272.73,221.52 272.05,220.25 269.24,215 C269.13,214.81 269.03,214.61 268.92,214.4 C265.99,207.06 265.99,197.4 270.74,190.84 C267.09,187.77 263.51,184.64 260,181.42 C262.85,179.81 272.45,176.25 275.56,175.81 C277.23,176.79 279.7,178.38 281.41,179.07 C287.25,174.03 292.66,174.53 297.95,175.02 C301.76,175.38 305.5,175.73 309.29,174 Z" fill="#078CA9"/>
    <path d="M275.99,176 C277.71,176.98 280.24,178.57 282,179.25 C277.99,182.9 274.17,183.06 271.34,187.96 L271.03,191 C267.29,187.95 263.61,184.81 260,181.6 C262.92,179.99 272.79,176.44 275.99,176 Z" fill="#0895C1"/>
    <path d="M404,109.04 C406.88,103.83 405.19,101.19 407.12,98.01 L410.08,100.27 C412.1,100.12 413.17,100.49 414.28,100.87 C415.24,101.19 416.22,101.53 417.89,101.56 L420.82,98 L420.88,182.43 C425.05,187.22 437.19,198.57 439.89,202.77 L437.94,204.42 C438.6,205.54 439.29,206.64 440,207.74 C438.73,208.5 436.74,208.46 434.37,208.41 C431.26,208.36 427.51,208.29 423.92,210 C420.9,208.04 406.26,192.16 404.03,188.52 L404.03,120.67 Z" fill="#078CA9"/>
    <path d="M425,210.29 C428.52,208.56 432.18,208.63 435.22,208.69 C437.54,208.73 439.48,208.77 440.73,208 C440.03,206.9 439.36,205.79 438.71,204.66 L440.62,203 C451.8,214.29 461.99,226.22 473,237.63 C466.28,244.51 468.07,247.7 463.74,254 C451.39,239.09 437.43,225.37 425,210.29 Z" fill="#05989B"/>
    <path d="M379.03,68 C383.35,70.14 386.76,71.5 389,75.9 L385.49,81.25 C378.14,92.22 366.9,110.16 359.25,120 C355.24,118.86 350.97,117.29 347,115.92 C355.57,102.09 365.75,87.58 374.92,73.97 Z" fill="#09AEB1"/>
    <path d="M379.09,68 C383.38,70.1 386.77,71.43 389,75.76 L385.51,81 L385.2,79.39 C383.11,76.79 379.8,76.58 376.34,74.63 L375,73.86 Z" fill="#09A7A6"/>
    <path d="M404,59 C408.67,63.32 412.92,62.79 418.49,62.08 C419.51,61.95 420.58,61.82 421.7,61.71 C422.08,71.92 422.02,82.15 421.95,92.37 C421.94,94.23 421.93,96.08 421.92,97.93 L418.84,101.5 C417.1,101.47 416.06,101.13 415.06,100.8 C413.89,100.42 412.78,100.06 410.66,100.2 L407.55,97.94 C405.53,101.13 407.3,103.78 404.28,109 C404.3,105.54 404.33,102.04 404.36,98.51 C404.48,85.35 404.6,71.83 404,59 Z" fill="#0895C1"/>
    <path d="M346.51,116 C350.56,117.38 354.91,118.97 359,120.13 C351.91,130.7 342.82,145.14 335.26,155 C332.34,153.98 324.98,152.07 323,150.95 C330.37,139.3 338.7,127.45 346.51,116 Z" fill="#079AA9"/>
    <path d="M390.42,50 C398.27,57.31 395.59,54.48 404,58.42 C397.01,60.58 393.02,69.11 388.78,76 C386.58,71.51 383.23,70.12 379,67.94 C382.87,62 386.68,56.02 390.42,50 Z" fill="#09AEB1"/>
    <path d="M323.65,151 C325.64,152.13 333.05,154.04 336,155.07 C333.29,159.16 327.52,167.12 325.52,171 C320.38,170.5 317.3,169.62 313,166.99 C314,164.78 322.1,152.73 323.65,151 Z" fill="#09AEB1"/>
    <path d="M313.15,167 C317.57,169.64 320.72,170.52 326,171.02 C323.55,174.32 318.7,180.47 316.82,183.86 C316.89,184 316.88,184.04 316.76,183.96 C316.78,183.93 316.8,183.89 316.82,183.86 C316.19,182.72 309.49,175 309,174.49 C309.17,171.72 311.39,169.42 313.15,167 Z" fill="#079AA9"/>
    <path d="M389.37,699.32 C396.78,688.03 406.13,680.47 413.98,670 C417.14,675.9 419.22,676.54 421.13,677.13 C422.4,677.52 423.6,677.9 425,679.77 C418.93,686.95 411.43,696.34 404.98,702.95 C404.9,705.72 404.95,712.46 405.01,720.99 L405.01,721 C405.17,745.42 405.43,784.48 403.15,786.92 C401.54,788.64 398.51,790.22 395.98,789.98 C393.05,789.69 392.37,788.97 390.38,787.08 C388.55,782.09 388.94,774.12 389.32,766.5 C389.71,758.57 390.09,751 387.92,747.53 C381.05,740.52 369.86,727.59 364,719.95 C365.72,719.86 365.78,719.89 367.08,720.48 C367.25,720.56 367.44,720.65 367.66,720.75 C374.97,724.03 375.75,723.38 377.27,722.13 C378.44,721.17 380.04,719.86 385.36,719.7 L388.27,723.37 C389.82,719.89 389.58,709.22 389.43,702.67 C389.4,701.36 389.38,700.21 389.37,699.32 Z" fill="#0895C1"/>
    <path d="M364,720.24 C365.74,720.15 365.8,720.18 367.12,720.76 C367.29,720.84 367.48,720.92 367.7,721.02 C375.09,724.2 375.89,723.57 377.42,722.36 C378.6,721.43 380.22,720.15 385.6,720 L388.55,723.56 C390.27,728.26 390.81,742.89 388.2,747 C381.24,740.2 369.92,727.66 364,720.24 Z" fill="#039F6C"/>
    <path d="M377.68,622.24 C380.72,621.62 382.64,621.14 385.79,621 L387.82,622.35 C388.35,625.17 388.51,628.45 390.39,630.34 C391.05,630.46 392.47,630.67 393,630.92 L392.18,632.7 C387,643.79 380.44,653.77 374.49,663.48 C371.48,668.39 372.15,683.62 372.64,694.72 C372.8,698.3 372.94,701.45 372.93,703.68 C377.43,710.44 380.3,714.73 386.07,720.52 C380.82,720.68 379.24,722.01 378.09,722.97 C376.59,724.23 375.82,724.89 368.62,721.58 C368.4,721.48 368.21,721.39 368.05,721.31 C366.76,720.71 366.7,720.68 365,720.77 C355.61,714.68 355.15,703.11 354.76,693.35 C354.57,688.44 354.39,684 353.11,680.92 C352.51,676.82 349.95,672.68 349.38,666.74 L347,665.26 L355.08,660.79 C361.33,649.53 370.75,632.65 377.68,622.24 Z" fill="#05989B"/>
    <path d="M378,622.44 C381.65,614.14 394.97,591.76 399.9,583 C399.71,592.54 402.69,594.65 411,599.3 C406.73,605.07 394.96,629.21 392.62,631 C392.11,630.75 390.76,630.55 390.13,630.42 C388.33,628.56 388.18,625.33 387.67,622.54 L385.73,621.22 C382.73,621.35 380.9,621.82 378,622.44 Z" fill="#0895C1"/>
    <path d="M429.83,639 C432.94,645.07 435.77,655.09 440,657.78 C435.88,666.91 431.22,672.51 424.3,680 C422.86,678.14 421.63,677.77 420.33,677.38 C418.37,676.79 416.24,676.16 413,670.3 C425.88,657.25 421.78,654.52 429.42,639.77 Z" fill="#0895C1"/>
    <path d="M442.38,26 C444.88,31.8 443.36,31.83 448.07,34.4 C450.7,35.07 452.35,35.45 453.98,35.98 C455.25,36.47 456.55,37.09 458.39,38.1 L459.06,38.28 L461,41.48 C459.13,47.27 456.76,47.66 450.62,48 C448.3,47.63 442.38,45.69 440,44.95 C442.86,41.66 442.64,34.85 442.46,29.31 C442.42,28.13 442.39,27.01 442.38,26 Z" fill="#05989B"/>
    <path d="M385.45,22 C385.53,24.37 385.44,26.68 385.36,28.95 L385.36,28.95 C385.15,34.34 384.96,39.49 387,44.59 C381.9,45.58 378.25,47.16 373.89,48 C370.33,46.59 369.05,43.69 367,40.55 L368.01,37.09 C377.69,34.53 380.42,33.98 381.61,32.32 C382.74,30.76 382.5,28.2 385.45,22 Z" fill="#05989B"/>
    <path d="M346.92,665 L349.29,666.46 C349.86,672.32 352.4,676.4 353,680.44 C348.84,683.28 330.54,692.86 326.05,694.19 C320.13,697.72 311.93,701.7 306.79,705 C301.78,702.62 301.02,700.2 293.25,697.39 C291.09,697.9 291.07,697.9 289,697.61 C292.15,691.53 304.13,687.01 310.9,683.75 C322.84,677.38 334.85,671.13 346.92,665 Z" fill="#039F6C"/>
    <path d="M256.56,286 C261.6,287.93 284.94,296.56 288,298.46 C278.02,298.18 273.8,298.42 264.93,304 C261.29,302.65 250.71,298.87 248,297.09 L249.51,296.15 C250.07,291.32 253.07,289.2 256.56,286 Z" fill="#09AEB1"/>
  </g>
  <g id="tree-layer-blue" class="logo-layer tree-layer tree-layer-blue" data-layer="blue">
    <path d="M617.17,92.05 C624.07,83.79 629.94,77.53 641.74,76.19 C649.74,75.29 657.77,77.67 663.95,82.77 C675.09,92.03 676.9,109.86 669.2,121.69 C678.3,130.68 689.66,141.43 698.21,150.74 C700.14,152.69 708.14,160.6 709.24,162.31 C715.72,168.48 722.04,174.79 728.23,181.24 L735.59,188.91 C736.74,189.57 739.67,189.17 743.54,188.63 C756.04,186.91 778.45,183.82 783.49,210.62 C785.71,222.45 781.08,228.05 776.86,233.16 C773.95,236.68 771.23,239.98 771.08,244.92 C770.97,248.58 787.62,304.31 788.88,305.29 C801.83,308.88 811.44,309.03 818.91,321.74 C822.65,328.15 823.62,335.77 821.6,342.9 C818.34,354.77 810.37,360.43 799.37,364.56 C799.34,371.1 801.14,412.42 802.3,417.67 C812.59,424.35 821.36,427.86 824.26,440.09 C826.1,447.97 824.48,456.26 819.81,462.9 C815.3,469.4 808.3,473.79 800.43,475.06 C783.35,477.68 775.68,468.26 767.78,455.61 C750.46,455.43 733.14,455.49 715.84,455.56 C700.14,455.63 684.44,455.69 668.75,455.56 C662.84,450.83 657.68,444.83 652.54,439.23 L652.08,438.74 C655.71,430.75 661.19,437.31 666.38,429.22 L657.63,419.88 C651.94,414.01 647.08,409.21 642.25,402.56 C642.56,402.05 642.84,401.6 643.1,401.19 C644.37,399.16 644.97,398.18 644.86,397.3 C644.73,396.28 643.63,395.39 641.46,393.13 C645.57,391.46 663.1,391.62 680.54,391.78 C695.1,391.91 709.6,392.04 716.15,391.1 C719.89,392.62 724.44,393.25 727.63,394.55 C724.49,393.43 720.3,392.79 716.83,391.39 C710.26,392.32 695.73,392.19 681.14,392.06 C663.68,391.91 646.12,391.75 642,393.41 C644.17,395.65 645.27,396.53 645.41,397.54 C645.52,398.42 644.91,399.38 643.64,401.4 C643.38,401.8 643.1,402.26 642.79,402.76 C647.63,409.36 652.5,414.11 658.2,419.94 L666.96,429.2 C669.98,432.59 673.14,435.76 676.29,439 C698.99,438.73 721.85,438.77 744.63,438.81 C752.77,438.82 760.9,438.84 769.01,438.84 C771.61,429.17 779.67,422.67 788.98,419.47 C789.13,409.82 788.49,399.81 787.85,389.72 C787.35,381.87 786.85,373.98 786.72,366.17 C780.97,363.75 777.55,361.99 772.09,359 L762.82,366.85 C753.84,374.67 741.67,385.73 732.3,392.81 C731.83,393.18 729.63,394.94 729.19,395.2 C728.98,395.1 728.77,395 728.54,394.91 C729.08,394.56 731.14,392.89 731.6,392.53 C740.96,385.39 753.11,374.24 762.06,366.36 L755.36,366.02 C753.53,364.37 753.52,364.2 753.41,362.43 C753.37,361.84 753.32,361.07 753.19,360.02 C764.73,350.53 764.66,350.05 763.49,341.79 C763.17,339.52 762.76,336.65 762.49,332.85 C760.2,332.02 757.32,330.91 754.1,329.68 C741.43,324.81 723.47,317.91 715.2,318 C703.77,323.69 667.97,362.71 655.32,372.23 C619.64,373.12 575.89,373.1 540.12,372.48 L494.08,421.41 C486.7,429.23 477.87,437.74 471.52,446.37 C470.24,448.12 470.3,451.48 470.34,453.75 L470.34,454.02 C470.98,461.14 470.85,471.26 470.75,479.94 L470.75,479.94 C470.71,482.62 470.68,485.16 470.67,487.44 L470.46,547.66 C470.45,549.28 470.44,551.09 470.42,553 C470.33,562.71 470.22,575.36 471.44,583.18 C473.55,584.92 474.82,590.35 475.9,593.44 C472.95,594.94 470.47,594.02 467.96,593.08 C464.58,591.82 461.16,590.54 456.48,595.16 C448.33,579.72 449.73,534.52 450.88,497.26 L450.88,497.26 C451.47,478.36 451.99,461.51 451.17,451.61 C451.01,449.67 451.49,444.88 451.97,440.01 C452.38,435.84 452.8,431.6 452.83,429.07 C452.53,421.85 452.65,414.08 452.77,406.58 L452.77,406.58 L452.77,406.57 L452.77,406.57 C452.8,404.33 452.84,402.12 452.86,399.96 C452.75,389.93 452.72,380.84 453.13,370.78 C464.54,355.2 520.53,309.37 523.39,300.84 C522.19,295.63 522.27,289.79 522.35,284.23 C522.37,283.16 522.39,282.09 522.39,281.05 C522.4,274.73 522.79,268.77 523.18,262.86 C523.82,253.06 524.46,243.42 523.28,232.61 C518.6,232.17 517.41,232.43 515.03,229.93 L515.03,229.92 L515.82,228.46 C515.65,228.26 515.46,228.05 515.25,227.83 C512.89,225.09 505.98,220.88 502.33,218.43 C498.98,202.37 497.92,196.45 509.4,183.09 C512.1,178.93 513.16,178.48 517.21,176.14 L517.22,176.17 C520.14,177.11 522.98,176.38 525.53,175.73 C527.38,175.26 529.07,174.82 530.52,175.1 C534.83,175.94 539.59,177.92 544.53,179 C547.93,178.19 552.19,173.84 555.04,171.37 L589.22,142.18 C595.7,136.75 610.76,124.87 615.39,119.11 C615.39,118.94 615.39,118.78 615.39,118.61 C615.45,118.54 615.51,118.47 615.57,118.39 C615.6,113.94 615.36,108.19 613.53,104.1 C613.73,102.51 613.83,101.24 613.91,100.16 C614.01,98.81 614.09,97.75 614.33,96.78 C614.74,95.53 615.5,94.32 617,92.65 C616.93,92.63 616.85,92.61 616.78,92.59 C616.85,92.51 616.93,92.43 617,92.35 L616.93,92.33 C617.01,92.24 617.09,92.15 617.17,92.05 Z M645.96,135.63 C645.02,145.67 643.71,155.72 642.66,165.76 L641.88,166.28 C641.58,163.73 641.73,162.41 641.87,161.25 C642.1,159.26 642.28,157.77 640.01,151.39 L639.76,151.74 C636.76,144.81 638.23,143.83 635.96,137.15 C633.55,133.13 630.41,132.18 626.12,130 C607.69,145.71 586.99,162.15 569.18,177.97 C564.4,181.8 559.64,185.11 556.06,189.97 C556.05,190.14 556.05,190.34 556.04,190.57 C556.01,191.51 555.96,192.82 556.06,193.46 C559.04,198.95 558.63,207.6 556.9,213.37 C556.84,213.79 556.78,214.08 556.74,214.31 C556.61,214.96 556.58,215.09 556.86,216.17 C558.2,217.18 565.86,222.87 566.44,223.65 C573.51,228.47 578.3,232.11 584.9,237.56 L590.18,241.81 C594.14,244.39 596.94,246.26 600.71,249.21 L603.92,250 C615.33,246.49 620.13,246.75 620.93,234.67 C623.12,238.51 622.35,238.69 625.58,240.06 C628.33,239.37 628.76,239.58 630.95,237.98 L631.35,240.35 C631.22,240.86 631.1,241.19 631,241.32 L631.14,244.85 C632.44,246.6 642.14,253.2 645.43,256 C666,244.62 700.39,232.25 723.33,220.63 C723.37,210.27 725.02,210.79 727.02,200.73 C727.56,198.04 725.55,195.96 723.62,193.96 C723.22,193.54 722.83,193.13 722.46,192.71 L717.97,187.62 C721.38,185.65 724.27,183.35 728,181.2 C721.79,174.73 715.44,168.4 708.93,162.21 C707.83,160.49 699.8,152.56 697.87,150.6 L696.33,153.09 C691.43,153.77 690.88,153.87 686.27,155.44 C677.67,146.76 669.21,137.95 660.91,129 C655.31,132.22 652.18,133.64 645.96,135.63 Z M593.98,290.22 C585.68,293.25 544.43,308.46 539.37,312.67 C520.14,328.66 488.99,357.03 471.09,374 C471.09,378.22 471.12,382.54 471.15,386.9 C471.23,397.66 471.3,408.66 471,419 C482.72,406.8 494.25,394.42 505.58,381.87 C512.59,374.17 521.66,363.55 529.25,356.82 C538.42,352.8 555.83,353.16 568.94,353.44 C571.78,353.5 574.42,353.55 576.72,353.56 C584.42,353.58 592.14,353.57 599.87,353.56 L599.94,353.56 C616.59,353.54 633.28,353.52 649.83,353.77 C665.29,338.09 680.47,324.35 697,309.74 C686.9,303.6 659.34,294.66 647.54,290.56 C629.68,310.31 614.06,306.54 595.85,290 Z M745.34,248.76 C739.71,251.82 737.57,251.89 731.05,251.73 C732.63,248.15 734.13,244.63 736,241.18 L728.55,232 C712.06,239.06 695.61,246.21 679.19,253.43 C671.53,256.77 659.15,261.56 652.38,265.86 C651.43,268.5 652.43,274.39 653.5,277.09 C655.08,281.14 698.58,295.59 705.27,297.66 C706.92,298.17 708.62,298.6 710.33,299 C715.8,292.54 719.53,279.08 723.59,270.86 C723.89,269.06 723.96,269.3 724.77,267.6 C725.9,264.57 727.11,261.64 728.35,258.69 C727.12,261.63 725.93,264.56 724.81,267.58 C723.99,269.31 723.92,269.06 723.61,270.89 C719.52,279.25 715.77,292.92 710.25,299.48 L702.35,299.9 L702,300.97 C708.01,303.17 713.77,303.21 719.9,304.17 C721.13,304.36 721.87,308.1 725.88,308.72 L726.41,307.21 C731.7,306.49 738.83,309.86 746.15,313.32 C755.35,317.67 764.85,322.15 771.37,318.87 C773.87,317.61 775.12,316.01 775.87,313.36 C777.58,307.33 762.04,253.71 758.18,246.08 C754.6,244.76 748.72,244.28 745.68,246.82 Z M566.46,224 C564.61,225.97 558.94,230.82 557.93,232.12 C554.71,230.44 552.9,227.03 548.13,226.02 C545.66,228.52 543.24,229.77 541.17,230.83 C537.46,232.74 534.87,234.08 535.08,241.03 C535.48,253.87 535.65,266.8 535,279.64 L535.3,282.27 C536.66,285.88 536.62,290.85 536.58,295.22 C536.57,296.18 536.57,297.12 536.57,298 C553.82,290.34 575.05,283.5 593.24,275.9 C593.51,267.6 595.6,265.98 596,259.44 C591.34,256.45 589.26,254.99 584.97,251.43 L585.69,247.27 C587.36,245.6 588.9,243.92 590.34,242.04 L585.04,237.82 C578.4,232.41 573.58,228.79 566.46,224 Z M556.61,408.06 C544.04,421.65 520.25,445.51 509.39,458.7 C509.55,482.07 509.56,505.44 509.42,528.8 C509.4,532.02 509.35,535.2 509.29,538.31 C508.73,570.04 508.28,595.35 553.28,594.59 C507.56,595.63 508.01,570.22 508.57,538.33 C508.63,535.22 508.68,532.04 508.7,528.83 C508.84,505.47 508.83,482.1 508.67,458.73 C519.54,445.53 543.37,421.65 555.93,408.06 Z M599.88,611.78 C607,621.65 615.05,633.62 622.32,643.06 C623.76,654.39 626.82,676.93 627.08,687.78 C635.6,690.66 642.35,692.9 646.38,701.45 C657,723.93 639.42,739.69 621.92,739.48 C639.19,739.27 656.17,723.64 645.69,701.46 C641.66,692.91 634.91,690.67 626.38,687.79 C626.13,676.94 623.06,654.4 621.62,643.07 C614.34,633.61 606.27,621.62 599.14,611.74 C599.39,611.75 599.63,611.76 599.88,611.78 Z M554.59,594.56 C559.83,594.44 565.46,594.43 570.96,594.42 C573.57,594.42 576.15,594.41 578.65,594.4 L640.37,594.46 C651.08,600.49 713.31,638.34 718.83,644.78 C718.89,645.07 718.94,645.34 718.98,645.59 C719.6,648.88 719.62,648.98 718.58,652.66 C716.52,654.58 714.4,656.17 711.41,656.17 C711.36,656.17 711.31,656.17 711.25,656.17 C713.98,655.99 715.97,654.47 717.91,652.67 C718.94,648.99 718.92,648.89 718.31,645.6 C718.26,645.35 718.21,645.08 718.16,644.79 C712.64,638.35 650.39,600.5 639.67,594.47 L577.94,594.41 C575.44,594.43 572.86,594.43 570.25,594.44 C565,594.45 559.63,594.46 554.59,594.56 Z M595.98,708.1 C592.32,708.44 589.64,708.41 586.78,710.63 C584.37,714.94 584.79,718.54 585.24,722.31 C585.7,726.26 586.19,730.39 583.43,735.68 C580.24,738.79 578.81,740.09 575.32,739.99 C578.31,739.9 579.76,738.57 582.73,735.68 C582.82,735.51 582.9,735.34 582.99,735.17 L583.03,736 C585.93,730.61 585.42,726.41 584.93,722.39 C584.46,718.56 584.01,714.89 586.55,710.51 C587.85,709.54 589.11,708.99 590.44,708.66 C592.09,708.31 593.88,708.26 595.99,708.04 Z M729.62,255.54 L729.37,256.23 L729.35,256.28 Z" fill="#067DE6"/>
    <path d="M549.59,389.68 C552.87,389.69 558,389.57 564.16,389.44 L564.16,389.44 C587.15,388.93 624.46,388.1 633.23,392.06 C636.41,393.49 638.27,393.97 641.75,393.64 C643.92,395.89 645.02,396.78 645.15,397.8 C645.26,398.68 644.65,399.65 643.39,401.68 C643.13,402.09 642.85,402.54 642.54,403.05 C647.37,409.69 652.23,414.48 657.92,420.35 L666.66,429.67 C661.36,437.92 655.76,430.92 652.14,439.7 L641.54,428.43 C635.23,421.85 629.04,415.15 622.96,408.36 L556.25,408.54 C543.69,422.11 519.87,445.96 509,459.14 C509.17,482.48 509.17,505.81 509.03,529.13 C509.01,532.35 508.96,535.52 508.9,538.63 C508.34,570.47 507.89,595.84 553.6,594.8 C558.98,594.67 564.81,594.66 570.49,594.65 C573.13,594.64 575.73,594.64 578.25,594.62 L639.97,594.68 C650.67,600.71 712.9,638.5 718.42,644.93 C718.48,645.22 718.53,645.49 718.57,645.73 C719.19,649.02 719.21,649.12 718.17,652.8 C716.11,654.71 713.99,656.3 711,656.3 C706.36,656.32 671.24,634.58 650.43,621.7 L650.43,621.7 C643.92,617.67 638.81,614.5 636.47,613.14 C624.39,612.77 611.44,612.6 599.45,611.92 C606.57,621.79 614.64,633.77 621.92,643.21 C623.36,654.52 626.42,677.03 626.68,687.86 C635.2,690.74 641.95,692.98 645.98,701.51 C662.7,736.86 609.49,755.55 596.82,721.6 C595.42,717.86 595.47,711.83 596.3,708.08 C592.32,708.5 589.51,708.33 586.51,710.58 C586.53,710.56 586.54,710.54 586.55,710.51 C589.76,708.11 592.75,708.3 597,707.86 C592.98,705.29 585.77,701.53 581,701 C582.33,705.75 582.37,713.35 582.4,719.33 C582.41,720.46 582.41,721.53 582.43,722.51 L583.01,735.71 C579.15,739.47 577.86,740.57 572.33,739.74 C566.33,735.02 565.82,721.61 565.37,709.73 C565.12,703.01 564.89,696.79 563.69,692.89 C562.38,688.64 550.91,673.49 547.69,669.07 L543.86,662.23 C545.27,661.25 545.3,661.35 546.95,661.1 C550.59,656.11 554.39,656.02 559.77,655.89 C560.1,655.88 560.44,655.87 560.79,655.86 C563.28,660.7 565.61,663.63 568.83,667.95 C570.35,671.07 575.86,679.08 578.05,682.4 C586.06,686.24 594.67,690.92 602.63,695.02 C605.22,693.7 607.92,691.65 610.35,689.95 C609.5,676.7 606.87,663.17 605.49,649.82 C597.21,640.42 586.26,623.83 578.78,613.08 C572.22,612.94 566.06,613.19 560.21,613.44 L560.21,613.44 L560.2,613.44 C538.77,614.32 521.34,615.05 502.7,595.53 C486.95,579.04 487.6,559.24 488.27,538.6 C488.44,533.33 488.62,528 488.52,522.66 C488.12,500.36 487.91,476.99 488.71,454.73 C494.43,446.25 541.69,395.04 549.59,389.68 Z" fill="#067DE6"/>
    <path d="M642,427.94 L642.66,425.96 C648.31,420.84 650.64,420.21 658.26,420 L666.96,429.2 L666.97,429.21 C661.7,437.22 656.15,430.4 652.55,439 Z" fill="#067BE4"/>
    <path d="M544,662.16 C545.4,661.21 545.44,661.31 547.09,661.07 C550.74,656.24 554.53,656.15 559.92,656.03 C560.26,656.02 560.6,656.01 560.95,656 C563.44,660.68 565.77,663.51 569,667.69 C563.39,673.35 560.48,672.35 555.91,670.76 C553.74,670.01 551.2,669.14 547.83,668.78 Z" fill="#067BE4"/>
    <path d="M582,722.5 C579.99,725.96 574.91,728.63 571.18,727.87 C566.6,721.7 569.64,715.67 576.51,714.2 L579.47,716.96 C580.33,715.28 580.36,711.82 580.38,708.2 C580.4,705.71 580.41,703.14 580.71,701 C581.91,705.75 581.95,713.34 581.98,719.31 C581.98,720.44 581.99,721.51 582,722.5 Z" fill="#0B84E6"/>
    <path d="M456,594.78 C460.95,589.53 464.51,590.87 468.02,592.19 C470.54,593.14 473.03,594.08 476,592.55 C476.17,592.74 476.34,592.93 476.52,593.12 C484.87,606.3 494.89,618.08 509.63,624.32 C523.14,630.06 538.32,627.15 549.07,638.73 C553.79,643.84 556.99,649.82 561,655.55 C560.65,655.56 560.31,655.56 559.97,655.57 C554.56,655.71 550.74,655.8 547.09,660.86 C545.43,661.11 545.39,661.01 543.98,662 C542.98,661.25 535.76,650.78 534.49,648.97 C498.97,645.05 470.67,627.81 456,594.78 Z" fill="#0B84E6"/>
    <path d="M728.02,380.83 C736.32,373.33 744.35,366.96 753.11,360 C753.24,361.06 753.29,361.82 753.33,362.41 C753.44,364.19 753.45,364.36 755.29,366.02 L762,366.36 C753.03,374.25 740.85,385.43 731.48,392.58 C731.05,392.92 729.18,394.44 728.52,394.9 C727.23,394.36 725.7,393.93 724.09,393.52 C722.82,393.17 721.48,392.85 720.14,392.49 C719,392.17 717.88,391.82 716.83,391.39 C716.77,391.4 716.72,391.41 716.67,391.41 C716.44,391.33 716.22,391.24 716,391.15 C718.87,388.09 724.6,383.65 728.02,380.83 Z" fill="#0684D9"/>
    <path d="M728.67,380 C733.83,381.22 733.5,380.24 736,383.47 C735.1,386.37 733.08,387.3 730.52,389.15 L730.33,391.12 L732.33,392.44 C731.83,392.84 729.51,394.73 729.04,395 C725.68,393.33 720.32,392.69 716,390.92 C719.03,387.69 725.07,382.99 728.67,380 Z" fill="#0B84E6"/>
    <path d="M616.81,92.06 C623.71,83.79 629.59,77.53 641.4,76.19 C649.41,75.29 657.46,77.67 663.64,82.78 C674.79,92.04 676.61,109.88 668.89,121.72 C677.96,130.68 689.28,141.38 697.83,150.67 L696.33,153.09 C691.43,153.77 690.88,153.87 686.27,155.44 C677.67,146.76 669.21,137.95 660.91,129 C655.31,132.22 652.18,133.64 645.96,135.63 C645.02,145.67 643.71,155.72 642.66,165.76 L641.88,166.28 C641.58,163.73 641.73,162.41 641.87,161.25 C642.1,159.26 642.28,157.77 640.01,151.39 L639.76,151.74 C636.76,144.81 638.23,143.83 635.96,137.15 C633.55,133.13 630.41,132.18 626.12,130 C607.69,145.71 586.99,162.15 569.18,177.97 C564.4,181.8 559.64,185.11 556.06,189.97 C556.05,190.14 556.05,190.34 556.04,190.57 C556.01,191.51 555.96,192.82 556.06,193.46 C559.04,198.95 558.63,207.6 556.9,213.37 C556.84,213.79 556.78,214.08 556.74,214.31 C556.61,214.96 556.58,215.09 556.86,216.17 C558.2,217.18 565.86,222.87 566.44,223.65 C573.51,228.47 578.3,232.11 584.9,237.56 L590.18,241.81 C594.14,244.39 596.94,246.26 600.71,249.21 L603.92,250 C610.76,247.89 615.23,247.14 617.88,244.28 C615.25,247.42 610.69,248.15 603.57,250.35 L600.35,249.55 C596.67,246.68 593.91,244.82 590.11,242.34 C590.19,242.24 590.26,242.14 590.34,242.04 L585.04,237.82 C578.4,232.41 573.58,228.79 566.46,224 C566.42,224.05 566.37,224.1 566.33,224.14 C566.19,224.05 566.05,223.96 565.91,223.86 C564.13,225.77 558.85,230.36 557.53,231.9 C554.55,230.16 552.7,226.99 548.13,226.02 L548.12,226.03 C547.95,225.98 547.78,225.94 547.59,225.9 C545.12,228.44 542.7,229.7 540.64,230.77 C536.93,232.71 534.35,234.05 534.56,241.09 C534.95,254.08 535.13,267.16 534.48,280.15 L533.19,280.14 C533.19,281.77 533.15,281.98 532.91,283.07 C532.85,283.32 532.78,283.62 532.7,284 C527.19,282.77 527.18,280.02 524.49,276.06 C523.79,278.18 523.13,279.32 521.91,281.2 C521.91,274.88 522.3,268.91 522.69,263.01 C523.34,253.19 523.97,243.55 522.79,232.73 C518.2,232.29 516.96,232.54 514.66,230.17 C514.78,230.09 514.91,230.01 515.03,229.92 L515.82,228.46 C513.42,225.58 505.88,221.03 502.38,218.63 C498.99,202.42 497.88,196.5 509.4,183.09 C512.1,178.93 513.16,178.48 517.21,176.14 L517.22,176.17 C520.14,177.11 522.98,176.38 525.53,175.73 C527.38,175.26 529.07,174.82 530.52,175.1 C534.83,175.94 539.59,177.92 544.53,179 C547.93,178.19 552.19,173.84 555.04,171.37 L589.22,142.18 C595.7,136.75 610.76,124.87 615.39,119.11 C615.39,118.8 615.4,118.48 615.39,118.16 C615.4,113.81 615.12,108.39 613.39,104.46 C613.57,103 613.65,101.82 613.73,100.8 C613.98,97.37 614.09,95.88 617,92.65 C616.93,92.63 616.85,92.61 616.78,92.59 C616.85,92.51 616.93,92.43 617,92.35 C616.88,92.32 616.76,92.29 616.63,92.26 C616.69,92.19 616.75,92.13 616.81,92.06 Z M631.35,240.35 C631.29,240.57 631.24,240.76 631.19,240.91 L630.73,238.26 C628.54,239.88 628.11,239.66 625.34,240.36 C622.2,239.03 622.82,238.81 620.88,235.32 C620.9,235.1 620.91,234.89 620.93,234.67 C623.12,238.51 622.35,238.69 625.58,240.06 C628.33,239.37 628.76,239.58 630.95,237.98 Z M727.11,199.76 C727.12,200.1 727.09,200.44 727.02,200.8 C725.03,210.84 723.39,210.32 723.34,220.65 C700.46,232.25 666.16,244.59 645.64,255.94 L645.6,255.9 C666.19,244.56 700.45,232.22 723.33,220.63 C723.37,210.27 725.02,210.79 727.02,200.73 C727.09,200.4 727.11,200.08 727.11,199.76 Z M727.93,181.25 L728,181.32 C724.29,183.46 721.42,185.74 718.03,187.69 L717.97,187.62 C721.36,185.66 724.23,183.38 727.93,181.25 Z" fill="#067DE6"/>
    <path d="M702,170.74 C706.2,168.43 706.43,167.37 706.72,166.06 C706.93,165.06 707.18,163.93 709.22,162 C715.62,168.33 721.88,174.81 728,181.44 C724.32,183.64 721.48,185.99 718.11,188 C712.83,182.8 707.1,176.27 702,170.74 Z" fill="#067DE6"/>
    <path d="M698.26,151 C700.13,152.94 707.93,160.81 709,162.52 C706.99,164.39 706.75,165.49 706.54,166.45 C706.26,167.72 706.03,168.76 701.89,171 C697.2,166.67 691.55,160.5 687,155.8 C691.48,154.24 692.01,154.14 696.77,153.46 Z" fill="#0B84E6"/>
    <path d="M635.98,138 C638.24,144.63 636.78,145.6 639.76,152.47 L640.01,152.13 C642.28,158.45 642.1,159.94 641.87,161.91 C641.73,163.12 641.56,164.52 641.93,167.34 C641.62,174.65 633.22,238.7 631.5,241 L630.99,238.01 C628.81,239.61 628.38,239.39 625.64,240.08 C622.42,238.72 623.19,238.54 621,234.73 C620.73,230.69 633.84,141.62 635.98,138 Z" fill="#067BE4"/>
    <path d="M522.87,233 C526.39,235.97 526.17,241.02 526.64,245.65 C528.16,242.82 528.28,239.35 528.71,236.2 L530.39,236.27 L530.02,234.35 L528.9,235.57 L529.8,233.76 L530.24,234.94 L529.93,233.71 C532.38,240.02 532.18,251 531.99,260.97 C531.84,269.04 531.71,276.44 533,280.16 C533,281.78 532.96,281.99 532.72,283.07 C532.67,283.32 532.6,283.62 532.53,284 C527.16,282.77 527.14,280.04 524.52,276.1 C523.84,278.21 523.19,279.34 522,281.21 C522,274.93 522.39,268.99 522.77,263.12 L522.77,263.12 C523.4,253.35 524.01,243.76 522.87,233 Z" fill="#0684D9"/>
    <path d="M556.01,216 C557.41,217.04 565.39,222.85 566,223.65 C564.17,225.57 558.76,230.19 557.34,231.78 C554.47,230.02 552.6,226.97 548.13,226.02 C547.77,225.91 547.4,225.81 547,225.72 L547.47,224.7 C552.78,222.8 556.01,221.96 556.01,216 Z" fill="#0B84E6"/>
    <path d="M555.98,194 C558.73,199.24 558.35,207.49 556.76,213 L554.7,212.67 L554.27,211.66 C551.37,204.73 550.57,199.88 555.98,194 Z" fill="#067BE4"/>
    <path d="M642,393.11 C646.07,391.38 663.39,391.54 680.62,391.7 C695.01,391.84 709.33,391.97 715.81,391 C719.84,392.72 724.86,393.35 728,394.99 C722.52,401.46 721.27,402.35 712.47,402.76 C702.53,403.23 691.87,402.92 681.16,402.61 C668.03,402.24 654.82,401.86 642.78,402.9 C643.08,402.38 643.36,401.91 643.62,401.48 C644.88,399.36 645.48,398.35 645.36,397.43 C645.22,396.37 644.13,395.44 642,393.11 Z" fill="#067BE4"/>
    <path d="M566.43,224 C573.45,228.72 578.21,232.28 584.76,237.6 L590,241.75 C588.58,243.61 587.06,245.26 585.41,246.91 L584.7,251 C581.99,249.35 578.91,246.95 576.31,245.02 C570.17,240.88 564.02,236.33 558,231.99 C559,230.71 564.6,225.94 566.43,224 Z" fill="#067BE4"/>
    <path d="M584.65,238 L590,242.03 C588.54,243.82 586.99,245.43 585.3,247.03 L584.58,251 C581.81,249.4 578.67,247.07 576,245.2 C580.07,241.87 582.45,242.35 584.65,238 Z" fill="#0B84E6"/>
    <path d="M472,582.82 L471.26,583.93 L469.79,584 C467.97,581.81 466.95,580.76 465.67,578.17 C467.66,561.56 466.8,542.14 465.93,522.88 C464.89,499.42 463.85,476.21 468.02,458.7 L466.79,457.73 L465.82,459.08 C464.8,455.6 466.32,449.95 467.3,446.32 L467.39,446 L468.49,446.88 C469.02,449.31 469.15,450.15 470.19,452.43 L470.91,453.97 C471.54,461.08 471.42,471.18 471.31,479.84 L471.31,479.84 C471.28,482.51 471.25,485.04 471.24,487.31 L471.03,547.38 C471.02,549.01 471.01,550.81 470.99,552.73 C470.9,562.42 470.79,575.03 472,582.82 Z" fill="#067BE4"/>
    <path d="M522.08,281.23 C523.31,279.32 523.97,278.16 524.68,276 C527.37,280.03 527.39,282.83 532.92,284.09 C533,283.7 533.06,283.39 533.12,283.13 C533.36,282.03 533.41,281.81 533.4,280.15 L534.7,280.16 L535,282.88 C534.52,289.65 534.95,293.92 532.51,300.13 L530.78,301.47 C527.94,300.62 528.17,300.48 526.34,298.06 C525.08,299.46 524.64,299.77 524.45,300.2 C524.25,300.63 524.3,301.17 524,303.1 L524.72,304.66 L524.64,305 L523.66,304.09 L523.73,302.24 L523.08,301.41 C521.87,296.1 521.96,290.15 522.04,284.48 C522.06,283.39 522.07,282.3 522.08,281.23 Z" fill="#067BE4"/>
    <path d="M452.23,400.52 C453.44,398.23 454.4,396.4 455.4,394 L455.83,400.83 C457.34,398.54 457.98,397.02 459.08,394.6 C462.32,400.04 461.33,411.55 457.11,416.42 C456.36,417.28 456.42,422.21 456.45,425.47 L456.45,425.47 L456.45,425.47 L456.45,425.49 L456.45,425.49 L456.45,425.5 C456.46,426.59 456.47,427.5 456.45,427.99 L456.26,427.52 L455.85,437.73 L455.22,438 C454.25,434.83 453.54,432.34 452.2,429.28 C451.88,422.13 452.01,414.45 452.13,407.02 L452.13,407.02 L452.13,407.02 C452.17,404.82 452.21,402.65 452.23,400.52 Z" fill="#067BE4"/>
    <path d="M589.72,242 C593.96,244.51 596.97,246.33 601,249.18 L597.77,248.96 L595.18,252.41 L594.59,252.33 L593.48,254.35 L595.74,259 C590.78,256.08 588.56,254.65 584,251.18 L584.76,247.12 C586.54,245.48 588.18,243.84 589.72,242 Z" fill="#0684D9"/>
    <path d="M728.37,182 L736,189.26 C732.59,193.61 731.09,193.22 728.96,192.67 C727.46,192.28 725.65,191.81 722.64,192.87 L718,188.06 C721.53,186.2 724.51,184.03 728.37,182 Z" fill="#067BE4"/>
    <path d="M723.59,271 C727.59,276.03 729.1,275.93 730.03,275.86 C730.96,275.79 731.32,275.77 733,280.94 C732.63,281.71 732.21,282.57 731.75,283.5 C728.61,289.85 723.87,299.46 724.48,304.81 L726.38,307.49 L725.85,309 C721.84,308.38 721.11,304.62 719.88,304.43 C713.76,303.47 708,303.42 702,301.22 L702.35,300.14 L710.24,299.72 C715.75,293.13 719.5,279.4 723.59,271 Z" fill="#0B84E6"/>
    <path d="M723.29,271.46 C723.39,271.26 723.49,271.05 723.59,270.86 C723.89,269.06 723.96,269.3 724.77,267.6 C726.18,263.8 727.73,260.17 729.29,256.43 L730.93,252 L730.94,251.98 C737.22,252.12 739.41,251.99 745,249 C744.35,250.55 739.25,262.79 738.94,263.2 C737.46,266.55 736.07,269.95 734.78,273.38 L732.54,281 C730.84,275.85 730.48,275.88 729.53,275.94 C728.61,276.01 727.13,276.11 723.29,271.46 Z" fill="#067BE4"/>
    <path d="M585.35,82 C595.54,84.31 606.47,89.76 617,92.46 C614.05,95.81 613.93,97.36 613.68,100.91 C613.59,102.03 613.5,103.35 613.29,105 C605.78,101.86 589.67,97.21 584,94.39 C589.61,89.92 588.79,86.77 585.35,82 Z" fill="#0B84E6"/>
    <path d="M340.76,234 L351.78,245.26 C371.09,264.56 392.02,285.98 412.1,304.24 L414.81,304.89 C422.95,295.51 449.78,268.6 459.39,260.16 C461.55,257.92 462.25,256.87 463.98,254.39 C468.36,248.12 466.55,244.94 473.36,238.09 L476.46,240.89 C476.68,240.88 476.88,240.87 477.07,240.86 L477.11,240.9 C480.61,240.72 479.63,240.69 482.83,237.73 C489.42,239.2 496.21,239.67 502.04,240.99 C492.89,250.41 480.92,264.19 471.87,272.5 C456.08,289.64 439.03,305.76 423.46,322.76 C423.22,333.91 423.24,344.96 423.25,355.99 L423.25,356.12 C423.26,365.32 423.27,374.52 423.14,383.75 C423.01,392.91 422.74,402 422.36,411.15 C422.27,413.44 422.49,415.61 422.71,417.8 C422.92,419.87 423.13,421.95 423.07,424.14 L423.14,535.14 C423.15,537.16 423.12,540.06 423.1,543.45 L423.1,543.46 C422.99,556.16 422.82,575.75 423.93,582.06 C427.09,584.27 454.02,645.49 458.7,653.57 C470.58,674.06 493.25,676.17 510.25,689.97 L508.8,691.57 C510.24,693.69 510.81,693.78 513,695.25 C509.36,697.53 508.2,696.18 504.57,699.27 L504.55,702.46 L502,700.17 L500.06,703 C494.59,700.7 486.64,695.82 481.15,692.59 C470.18,685.81 457.11,680.18 447.5,671.67 C445.43,669.84 442.05,661.27 440,657.79 L440,657.79 L440,657.78 C439.94,657.69 439.88,657.59 439.83,657.51 C438.66,656.72 437.6,655.32 436.62,653.58 C434.43,649.61 432.59,644 430.67,639.83 C430.53,639.51 430.38,639.2 430.24,638.9 C429.98,637.2 429.26,635.05 428.25,632.62 C424.18,622.62 414.96,607.62 412.05,599.08 C403.41,594.41 400.31,592.29 400.51,582.71 C404.29,576.51 403.6,521.73 403.21,491.16 L403.21,491.16 C403.11,483.48 403.04,477.33 403.05,473.87 L403.01,398.74 C402.87,390.6 402.89,382.27 402.9,374 C402.91,370.04 402.92,366.1 402.91,362.19 L403.01,329.6 L402.6,321.48 C386.1,302.44 353.18,269.47 334.86,251.52 C331.88,248.5 328.92,245.24 326,242.15 C332.86,239.95 334.85,237.88 340.76,234 Z" fill="#0684D9"/>
    <path d="M424,582.28 L423.3,584 C420.91,582.31 421.33,581.47 419.53,579.77 C417.27,565.13 418,546.37 418.66,529.05 C418.93,522.01 419.2,515.22 419.25,509.03 C419.42,500.15 419.4,491.2 419.37,482.25 L419.37,482.24 C419.34,469.93 419.3,457.61 419.79,445.41 C419.88,443.35 419.77,440.2 419.64,436.69 C419.36,428.84 419.02,419.19 420.66,416 C422.17,417.43 422.06,417.7 421.84,418.23 C421.57,418.88 421.14,419.92 423.18,423.86 L423.25,535.21 C423.26,537.24 423.23,540.16 423.21,543.57 L423.21,543.57 C423.11,556.32 422.95,575.95 424,582.28 Z" fill="#067DE6"/>
    <path d="M402,398.5 L403.71,397.59 C403.82,395.54 403.81,390.72 403.8,385.22 L403.8,385.19 C403.78,375.02 403.75,362.54 404.51,361 C405.19,363.48 405.18,366.35 405.17,369.2 L405.17,369.2 C405.16,370.89 405.15,372.57 405.29,374.16 C407.45,398.94 407.86,425.07 404.77,449.76 C404.49,452.01 404.56,454.8 404.63,457.72 C404.78,463.77 404.95,470.38 402.05,474 Z" fill="#0B84E6"/>
    <path d="M402.1,328.8 C403.6,329.06 404.92,328.61 406.45,328.1 C407.84,327.63 409.42,327.1 411.46,327 L413.97,328.45 L414,329.69 C413.61,329.83 413.26,329.96 412.95,330.08 C410.91,330.86 410.41,331.05 407.59,330.73 C406.64,335.6 406.91,339.39 407.16,342.87 C407.58,348.85 407.95,353.94 402,362 Z" fill="#0B84E6"/>
    <path d="M501.5,218 C505.01,220.47 512.59,225.14 515,228.1 L514.21,229.61 C509.85,232.58 508.94,233.46 505.32,237.36 L501.84,241 C495.82,239.6 488.79,239.12 482,237.51 C483.52,235.9 485.35,234.28 486.99,232.76 C490.82,228.35 497.22,222.29 501.5,218 Z" fill="#067BE4"/>
    <path d="M404,108.78 C406.84,103.68 405.17,101.11 407.08,98 L410,100.2 C411,108.47 411.14,112.16 410.89,120.5 L410.16,120.95 L407.54,114 C407.32,116.4 407.3,119.03 407.28,121.64 C407.24,125.34 407.21,129.02 406.63,132 C406.6,131.18 406.58,130.4 406.57,129.64 C406.51,126.02 406.46,123.02 404.03,120.14 Z" fill="#067BE4"/>
    <path d="M510.22,690 C522.39,696.08 522.39,701.14 522.39,712.72 C522.39,713.54 522.39,714.39 522.39,715.27 C524.52,717.84 525.1,746.8 524.99,752.26 C524.78,761.78 517.82,767.59 509.87,758.32 C508.49,752.72 507.24,735.42 507.12,729.2 C507.12,728.89 507.12,728.57 507.12,728.26 C507.09,719.11 507.06,709.05 500,703.14 L501.95,700.28 L504.51,702.59 L504.52,699.37 C508.17,696.27 509.33,697.62 512.98,695.33 C510.78,693.85 510.22,693.75 508.77,691.62 Z" fill="#067DE6"/>
    <path d="M513.27,714.92 C514.68,711.5 513.54,712.65 516.35,711 C518.71,712.22 520.71,713.33 523,714.65 C521.78,718.6 522.23,727.42 521.25,728.93 L519.09,727.66 L515.18,730 L514.33,729.63 C512.78,724.83 512.92,722.19 513.13,718.09 C513.18,717.13 513.23,716.09 513.27,714.92 Z" fill="#067BE4"/>
  </g>
</svg>
